HIERARCHY
ROOT Hips
{
	OFFSET 53.076099 -6.220855 91.555801
	CHANNELS 6 Xposition Yposition Zposition Xrotation Yrotation Zrotation
	JOINT spine
	{
		OFFSET 0.000000 -0.393702 6.846367
		CHANNELS 3 Xrotation Yrotation Zrotation
		JOINT spine1
		{
			OFFSET 0.000000 -0.000001 9.496208
			CHANNELS 3 Xrotation Yrotation Zrotation
			JOINT spine2
			{
				OFFSET 0.000000 -0.000001 9.099091
				CHANNELS 3 Xrotation Yrotation Zrotation
				JOINT Neck
				{
					OFFSET 0.000000 -1.113784 23.361206
					CHANNELS 3 Xrotation Yrotation Zrotation
					JOINT Head
					{
						OFFSET 0.000000 -0.000001 7.058014
						CHANNELS 3 Xrotation Yrotation Zrotation
						End Site
						{
							OFFSET 0.000000 5.634187 17.084396
						}
					}
				}
				JOINT RightShoulder
				{
					OFFSET -3.831360 0.533490 9.826309
					CHANNELS 3 Xrotation Yrotation Zrotation
					JOINT RightArm
					{
						OFFSET 0.000000 -0.000002 12.888107
						CHANNELS 3 Xrotation Yrotation Zrotation
						JOINT RightArmRoll
						{
							OFFSET 0.000000 -0.000001 6.506165
							CHANNELS 3 Xrotation Yrotation Zrotation
							JOINT RightForeArm
							{
								OFFSET 0.000000 -0.000003 18.950104
								CHANNELS 3 Xrotation Yrotation Zrotation
								JOINT RightForeArmRoll
								{
									OFFSET 0.000000 -0.000001 7.300919
									CHANNELS 3 Xrotation Yrotation Zrotation
									JOINT RightHand
									{
										OFFSET 0.000000 -0.000002 14.651398
										CHANNELS 3 Xrotation Yrotation Zrotation
										End Site
										{
											OFFSET 0.000000 0.000000 0.100006
										}
									}
								}
							}
						}
					}
				}
				JOINT LeftShoulder
				{
					OFFSET 3.831360 0.533490 9.826309
					CHANNELS 3 Xrotation Yrotation Zrotation
					JOINT LeftArm
					{
						OFFSET 0.000000 -0.000002 12.888107
						CHANNELS 3 Xrotation Yrotation Zrotation
						JOINT LeftArmRoll
						{
							OFFSET 0.000000 -0.000001 6.506165
							CHANNELS 3 Xrotation Yrotation Zrotation
							JOINT LeftForeArm
							{
								OFFSET 0.000000 -0.000003 18.950104
								CHANNELS 3 Xrotation Yrotation Zrotation
								JOINT LeftForeArmRoll
								{
									OFFSET 0.000000 -0.000001 7.300919
									CHANNELS 3 Xrotation Yrotation Zrotation
									JOINT LeftHand
									{
										OFFSET 0.000000 -0.000002 14.651398
										CHANNELS 3 Xrotation Yrotation Zrotation
										End Site
										{
											OFFSET 0.000000 0.000000 0.100006
										}
									}
								}
							}
						}
					}
				}
			}
		}
	}
	JOINT RightUpLeg
	{
		OFFSET -6.068371 0.933477 -1.112778
		CHANNELS 3 Xrotation Yrotation Zrotation
		JOINT RightUpLegRoll
		{
			OFFSET 0.000000 -0.000003 17.179596
			CHANNELS 3 Xrotation Yrotation Zrotation
			JOINT RightLeg
			{
				OFFSET 0.000000 0.000003 -21.274300
				CHANNELS 3 Xrotation Yrotation Zrotation
				JOINT RightLegRoll
				{
					OFFSET 0.000000 -0.000003 21.343903
					CHANNELS 3 Xrotation Yrotation Zrotation
					JOINT RightFoot
					{
						OFFSET 0.000000 -0.000003 17.765198
						CHANNELS 3 Xrotation Yrotation Zrotation
						JOINT RightToeBase
						{
							OFFSET 0.000000 -0.000002 14.850807
							CHANNELS 3 Xrotation Yrotation Zrotation
							End Site
							{
								OFFSET 0.006294 0.829004 7.192139
							}
						}
					}
				}
			}
		}
	}
	JOINT LeftUpLeg
	{
		OFFSET 6.068371 0.933477 -1.112778
		CHANNELS 3 Xrotation Yrotation Zrotation
		JOINT LeftUpLegRoll
		{
			OFFSET 0.000000 -0.000003 17.179703
			CHANNELS 3 Xrotation Yrotation Zrotation
			JOINT LeftLeg
			{
				OFFSET 0.000000 -0.000003 21.274200
				CHANNELS 3 Xrotation Yrotation Zrotation
				JOINT LeftLegRoll
				{
					OFFSET 0.000000 -0.000003 21.541199
					CHANNELS 3 Xrotation Yrotation Zrotation
					JOINT LeftFoot
					{
						OFFSET 0.000000 -0.000003 17.567902
						CHANNELS 3 Xrotation Yrotation Zrotation
						JOINT LeftToeBase
						{
							OFFSET 0.000000 -0.000002 14.850800
							CHANNELS 3 Xrotation Yrotation Zrotation
							End Site
							{
								OFFSET -0.028210 0.829004 7.192139
							}
						}
					}
				}
			}
		}
	}
}
MOTION
Frames: 4
Frame Time: 0.041667
52.955795 -5.882461 91.503891 6.532267 2.862308 0.032997 -4.613992 0.800522 0.015397 -5.226095 1.600881 0.075245 -3.580760 1.601668 0.056126 12.349602 -36.715969 -3.310210 14.892186 26.768768 -6.216248 -28.607218 -30.263943 -36.260983 -494.914469 -215.886174 -438.130571 0.000002 0.000000 -0.000002 18.080156 10.150955 -1.508519 -0.000004 -0.000001 -3.006329 -5.000204 -7.999072 0.000098 -25.759051 -12.435164 38.002346 -124.206580 220.595125 56.160845 0.000001 0.000002 0.000004 16.641884 -22.833976 -2.239523 -0.000006 -0.000006 3.009409 -5.000203 7.998783 -0.000154 -8.911065 -179.400342 -2.366662 -179.999991 0.000005 -0.852007 176.067879 -1.217132 -0.144657 0.000003 0.000002 0.040292 69.244191 6.882938 2.146179 25.456959 -7.355623 0.000005 -6.485524 171.820949 -0.770195 -0.000005 -0.000004 -0.929413 -5.210298 1.882116 0.202844 0.000001 0.000001 -0.076347 69.634100 -6.843893 -2.199326 25.456962 7.355613 0.000002 
52.958500 -5.887708 91.507790 6.505318 2.856410 0.040794 -4.612342 0.800757 0.017008 -5.223015 1.601297 0.078359 -3.577680 1.602123 0.059236 12.243923 -36.615415 -3.314099 14.992871 26.665460 -6.193489 -28.578285 -30.206122 -36.225790 -494.821852 -215.932852 -438.072733 0.000001 0.000000 -0.000001 18.135296 10.143826 -1.508320 -0.000004 0.000000 -3.006328 -5.000204 -7.999071 0.000098 -25.747196 -12.440826 37.977027 -124.136912 220.651706 56.218683 0.000001 0.000000 0.000004 16.654231 -22.801004 -2.231605 -0.000005 -0.000006 3.009419 -5.000201 7.998781 -0.000153 -8.878004 -179.394331 -2.359484 -179.999991 0.000005 -0.853003 176.070925 -1.218132 -0.144661 0.000003 0.000002 0.040279 69.243980 6.882927 2.146190 25.456957 -7.355623 0.000004 -6.459788 171.826509 -0.772034 -0.000005 -0.000004 -0.930091 -5.211697 1.881635 0.203043 0.000001 0.000001 -0.076222 69.629141 -6.843937 -2.199341 25.456957 7.355615 0.000000 
52.955902 -5.887938 91.507500 6.480292 2.851892 0.048832 -4.611021 0.800791 0.018557 -5.220694 1.601382 0.081518 -3.575360 1.602238 0.062392 12.145284 -36.537872 -3.319256 15.086935 26.591743 -6.177749 -28.550030 -30.151733 -36.191345 -494.731857 -215.975513 -438.019430 0.000001 -0.000001 -0.000001 18.189465 10.135688 -1.508168 -0.000002 -0.000000 -3.006328 -5.000206 -7.999072 0.000098 -25.734047 -12.447896 37.949784 -124.064676 220.702987 56.274243 0.000002 0.000001 0.000004 16.668354 -22.767452 -2.223700 -0.000003 -0.000005 3.009430 -5.000201 7.998783 -0.000154 -8.846301 -179.388362 -2.353641 -179.999991 0.000005 -0.853003 176.074518 -1.220127 -0.144721 0.000003 0.000002 0.040267 69.243747 6.882882 2.146298 25.456959 -7.355623 0.000004 -6.437727 171.831126 -0.774535 -0.000005 -0.000004 -0.930680 -5.215739 1.881543 0.203347 0.000002 0.000001 -0.076108 69.625248 -6.843989 -2.199389 25.456962 7.355614 0.000001 
52.957100 -5.893634 91.507301 6.456563 2.848568 0.057177 -4.609802 0.800646 0.020044 -5.218663 1.601178 0.084701 -3.573329 1.602081 0.065577 12.046858 -36.477807 -3.327203 15.180556 26.540377 -6.168643 -28.523078 -30.101262 -36.158345 -494.643720 -216.015251 -437.972876 0.000001 0.000002 -0.000001 18.241323 10.126446 -1.508031 -0.000003 -0.000000 -3.006328 -5.000204 -7.999074 0.000098 -25.720358 -12.454660 37.921337 -123.990009 220.750457 56.328252 0.000001 0.000001 0.000004 16.683668 -22.732905 -2.215748 -0.000006 -0.000006 3.009438 -5.000200 7.998785 -0.000153 -8.815216 -179.385329 -2.348409 -179.999991 0.000005 -0.854001 176.078834 -1.221142 -0.144699 0.000003 0.000002 0.040255 69.243529 6.882835 2.146404 25.456957 -7.355623 0.000004 -6.418780 171.833817 -0.777530 -0.000005 -0.000005 -0.931196 -5.222325 1.881842 0.203766 0.000001 0.000001 -0.076010 69.622297 -6.844044 -2.199282 25.456960 7.355613 0.000001 
